# xmcd
#
# Track frame offsets:
# 150
# 16662
# 40002
# 64282
# 89052
# 107000
# 129042
# 148647
# 167752
# 181902
# 206120
# 223005
#
# Disc length: 3124 seconds
#
#
# Revision: 0
# Processed by: cddbd v1.5.1PL0 Copyright (c) Steve Scherf et al.
# Submitted via: FreeRIP 2.941 
#
DISCID=a60c320c
DTITLE=Vitalis - Vitalis
DYEAR=1995
DGENRE=Blues
TTITLE0=Love callin-01
TTITLE1=Lushlife-02
TTITLE2=The cryin game-03
TTITLE3=Can't be easen-04
TTITLE4=Upstairs, downstairs-05
TTITLE5=Open your mind-06
TTITLE6=Lady of the night-07
TTITLE7=One of these days-08
TTITLE8=It's alive-09
TTITLE9=Why-10
TTITLE10=Mr. Goodluck-11
TTITLE11=My one and only friend-12
EXTD=
EXTT0=
EXTT1=
EXTT2=
EXTT3=
EXTT4=
EXTT5=
EXTT6=
EXTT7=
EXTT8=
EXTT9=
EXTT10=
EXTT11=
PLAYORDER=
